D:\school\WTK\thesis\model\3dpredictsim\Results\batch_windlass\Pog_s1_tmt_aCst_d05_k800_WL10_ig24_act_TTC_GRF.mot
nRows=25
nColumns=19

name D:\school\WTK\thesis\model\3dpredictsim\Results\batch_windlass\Pog_s1_tmt_aCst_d05_k800_WL10_ig24_act_TTC_GRF.mot
datacolumns 19
datarows 25
range 0.0000000000 0.2817615888
endheader
time 	ground_force_vx	ground_force_vy	ground_force_vz	ground_force_px	ground_force_py	ground_force_pz	1_ground_force_vx	1_ground_force_vy	1_ground_force_vz	1_ground_force_px	1_ground_force_py	1_ground_force_pz	ground_torque_x	ground_torque_y	ground_torque_z	1_ground_torque_x	1_ground_torque_y	1_ground_torque_z
        0.0000000000	      -70.9508076893	       55.5835624594	       13.1765858867	        0.1519877206	        0.0000000000	        0.0642784212	       88.1708330511	      375.7498751054	       -1.7629904509	       -0.3697568860	        0.0000000000	       -0.0320497996	        0.0000000000	        0.0000000000	        0.0000000000	        0.0000000000	        0.0000000000	        0.0000000000	
        0.0117400662	     -148.5059631740	      152.0454449329	       39.0223393556	        0.1664743787	        0.0000000000	        0.0639714044	       54.4855887238	      274.3685094328	      -11.2005837907	       -0.3597509040	        0.0000000000	       -0.0273540586	        0.0000000000	        0.0000000000	        0.0000000000	        0.0000000000	        0.0000000000	        0.0000000000	
        0.0234801324	      -78.4925217827	      415.9485970593	        4.5446981359	        0.1820421685	        0.0000000000	        0.0645252859	       33.6214008459	      208.3184075132	      -18.0369006719	       -0.3502495997	        0.0000000000	       -0.0224611658	        0.0000000000	        0.0000000000	        0.0000000000	        0.0000000000	        0.0000000000	        0.0000000000	
        0.0352201986	      -95.2338929048	      694.9915066453	      -19.3192238322	        0.1917735660	        0.0000000000	        0.0645728617	       30.8711083408	      174.5432798940	      -17.6472705541	       -0.3503001212	        0.0000000000	       -0.0225951095	        0.0000000000	        0.0000000000	        0.0000000000	        0.0000000000	        0.0000000000	        0.0000000000	
        0.0469602648	     -146.6714554761	      890.0279641361	      -23.7852903417	        0.2043598228	        0.0000000000	        0.0629800290	       22.9041025733	      126.0077180931	      -18.0966938553	       -0.3501030476	        0.0000000000	       -0.0227663179	        0.0000000000	        0.0000000000	        0.0000000000	        0.0000000000	        0.0000000000	        0.0000000000	
        0.0587003310	     -163.3378264501	      945.3277961852	      -23.0751405035	        0.2145974031	        0.0000000000	        0.0611105018	        4.6050310843	       68.9092476852	      -15.7641026481	       -0.3508444942	        0.0000000000	       -0.0230999128	        0.0000000000	        0.0000000000	        0.0000000000	        0.0000000000	        0.0000000000	        0.0000000000	
        0.0704403972	     -147.4857826787	      897.7851510055	      -21.6864095659	        0.2189962034	        0.0000000000	        0.0600031919	       -5.9036224229	       10.6386610572	       -2.3719284187	       -0.3544936344	        0.0000000000	       -0.0222295531	        0.0000000000	        0.0000000000	        0.0000000000	        0.0000000000	        0.0000000000	        0.0000000000	
        0.0821804634	     -125.6874990057	      828.2149587289	      -20.5220738442	        0.2218036349	        0.0000000000	        0.0593845817	       -2.4048149378	        2.0124799560	        0.1406821182	        0.0000000000	        0.0000000000	        0.0000000000	        0.0000000000	        0.0000000000	        0.0000000000	        0.0000000000	        0.0000000000	        0.0000000000	
        0.0939205296	     -109.7183280196	      774.4015266890	      -19.6702403326	        0.2249594605	        0.0000000000	        0.0589325867	       -8.0172566029	        5.7665766429	        0.6095199244	        0.0000000000	        0.0000000000	        0.0000000000	        0.0000000000	        0.0000000000	        0.0000000000	        0.0000000000	        0.0000000000	        0.0000000000	
        0.1056605958	      -96.9313269562	      737.1928391800	      -20.2479603961	        0.2280000960	        0.0000000000	        0.0585737434	       -6.6615230978	        4.2116080553	        0.5568471615	        0.0000000000	        0.0000000000	        0.0000000000	        0.0000000000	        0.0000000000	        0.0000000000	        0.0000000000	        0.0000000000	        0.0000000000	
        0.1174006620	      -84.1378564715	      707.2363303866	      -21.1032911348	        0.2307927740	        0.0000000000	        0.0583281816	       -4.8063336166	        2.7569593712	        0.4207936017	        0.0000000000	        0.0000000000	        0.0000000000	        0.0000000000	        0.0000000000	        0.0000000000	        0.0000000000	        0.0000000000	        0.0000000000	
        0.1291407282	      -71.5528356786	      681.6505697058	      -21.8853546951	        0.2346916225	        0.0000000000	        0.0580050006	       -3.3534396801	        1.7739069108	        0.3085492174	        0.0000000000	        0.0000000000	        0.0000000000	        0.0000000000	        0.0000000000	        0.0000000000	        0.0000000000	        0.0000000000	        0.0000000000	
        0.1408807944	      -62.1447427412	      660.9661698450	      -21.7326332389	        0.2398178072	        0.0000000000	        0.0575191729	       -2.7273664205	        1.3657041647	        0.2433536855	        0.0000000000	        0.0000000000	        0.0000000000	        0.0000000000	        0.0000000000	        0.0000000000	        0.0000000000	        0.0000000000	        0.0000000000	
        0.1526208606	      -54.8056506256	      644.4814006281	      -21.9557795160	        0.2456597583	        0.0000000000	        0.0568845004	       -2.0265305997	        0.9741490037	        0.1752452461	        0.0000000000	        0.0000000000	        0.0000000000	        0.0000000000	        0.0000000000	        0.0000000000	        0.0000000000	        0.0000000000	        0.0000000000	
        0.1643609268	      -48.8950091623	      630.4221221749	      -22.1243608516	        0.2518647664	        0.0000000000	        0.0561490797	       -1.4583062087	        0.6788283165	        0.1215825394	        0.0000000000	        0.0000000000	        0.0000000000	        0.0000000000	        0.0000000000	        0.0000000000	        0.0000000000	        0.0000000000	        0.0000000000	
        0.1761009930	      -44.0362405856	      617.9149943005	      -21.9469956527	        0.2581050082	        0.0000000000	        0.0553669118	       -1.0815747678	        0.4907976977	        0.0865033025	        0.0000000000	        0.0000000000	        0.0000000000	        0.0000000000	        0.0000000000	        0.0000000000	        0.0000000000	        0.0000000000	        0.0000000000	
        0.1878410592	      -39.2925337231	      606.5834233078	      -21.4072778030	        0.2642682234	        0.0000000000	        0.0545643661	       -0.8471846473	        0.3764204901	        0.0641383007	        0.0000000000	        0.0000000000	        0.0000000000	        0.0000000000	        0.0000000000	        0.0000000000	        0.0000000000	        0.0000000000	        0.0000000000	
        0.1995811254	      -36.0436345834	      597.5613678566	      -20.5689342077	        0.2702406497	        0.0000000000	        0.0537549538	       -0.7055870901	        0.3077976940	        0.0497127043	        0.0000000000	        0.0000000000	        0.0000000000	        0.0000000000	        0.0000000000	        0.0000000000	        0.0000000000	        0.0000000000	        0.0000000000	
        0.2113211916	      -32.6666535963	      590.0783616106	      -19.8261367680	        0.2758729467	        0.0000000000	        0.0529693371	       -0.6293425533	        0.2699210482	        0.0406758699	        0.0000000000	        0.0000000000	        0.0000000000	        0.0000000000	        0.0000000000	        0.0000000000	        0.0000000000	        0.0000000000	        0.0000000000	
        0.2230612578	      -29.0377018605	      582.4342701398	      -19.0338304133	        0.2811996279	        0.0000000000	        0.0522086785	       -0.6066534037	        0.2559585121	        0.0356745368	        0.0000000000	        0.0000000000	        0.0000000000	        0.0000000000	        0.0000000000	        0.0000000000	        0.0000000000	        0.0000000000	        0.0000000000	
        0.2348013240	      -25.4587965631	      575.4548958986	      -18.6352038994	        0.2863296563	        0.0000000000	        0.0514518017	       -0.6273028343	        0.2604978199	        0.0334120413	        0.0000000000	        0.0000000000	        0.0000000000	        0.0000000000	        0.0000000000	        0.0000000000	        0.0000000000	        0.0000000000	        0.0000000000	
        0.2465413902	      -21.9997284982	      568.8628635752	      -18.5058597834	        0.2912706380	        0.0000000000	        0.0506972104	       -0.6832622714	        0.2795426057	        0.0329126610	        0.0000000000	        0.0000000000	        0.0000000000	        0.0000000000	        0.0000000000	        0.0000000000	        0.0000000000	        0.0000000000	        0.0000000000	
        0.2582814564	      -18.6976812469	      562.6644797959	      -18.6662351241	        0.2960197902	        0.0000000000	        0.0499455285	       -0.7677050419	        0.3099161461	        0.0335411867	        0.0000000000	        0.0000000000	        0.0000000000	        0.0000000000	        0.0000000000	        0.0000000000	        0.0000000000	        0.0000000000	        0.0000000000	
        0.2700215226	      -15.6100437986	      556.9820026554	      -18.8842695413	        0.3005353946	        0.0000000000	        0.0492095577	       -0.8735947314	        0.3486157079	        0.0348527550	        0.0000000000	        0.0000000000	        0.0000000000	        0.0000000000	        0.0000000000	        0.0000000000	        0.0000000000	        0.0000000000	        0.0000000000	
        0.2817615888	      -12.6879991835	      552.1721351768	      -18.8867068299	        0.3047597551	        0.0000000000	        0.0485058462	       -0.9893814453	        0.3910883196	        0.0361485231	        0.0000000000	        0.0000000000	        0.0000000000	        0.0000000000	        0.0000000000	        0.0000000000	        0.0000000000	        0.0000000000	        0.0000000000	
